<svg width="30" height="30" viewBox="0 0 30 30" fill="none" xmlns="http://www.w3.org/2000/svg">
<g id="sound-bars-pulse 1" clip-path="url(#clip0_8_14590)">
<g id="Group">
<g id="Group_2">
<g id="Group_3">
<path id="Vector" d="M1.5383 20.3847C0.688723 20.3847 0 19.6966 0 18.8464V11.1549C0 10.3053 0.688723 9.61658 1.5383 9.61658C2.38787 9.61658 3.0766 10.3053 3.0766 11.1549V18.8464C3.0766 19.6947 2.38787 20.3847 1.5383 20.3847Z" fill="white"/>
</g>
<g id="Group_4">
<path id="Vector_2" d="M6.0256 24.231C5.17603 24.231 4.4873 23.5423 4.4873 22.6927V7.30722C4.4873 6.45764 5.17603 5.76892 6.0256 5.76892C6.87518 5.76892 7.5639 6.45764 7.5639 7.30722V22.6927C7.56454 23.5423 6.87518 24.231 6.0256 24.231Z" fill="white"/>
</g>
<g id="Group_5">
<path id="Vector_3" d="M10.5127 22.3072C9.66309 22.3072 8.97437 21.6185 8.97437 20.7689V9.23105C8.97437 8.38147 9.66309 7.69275 10.5127 7.69275C11.3622 7.69275 12.0516 8.38147 12.0516 9.23105V20.7689C12.051 21.6185 11.3622 22.3072 10.5127 22.3072Z" fill="white"/>
</g>
<g id="Group_6">
<path id="Vector_4" d="M15 26.1543C14.1504 26.1543 13.4617 25.4662 13.4617 24.616V5.38473C13.4617 4.53516 14.1504 3.84644 15 3.84644C15.8495 3.84644 16.5383 4.53516 16.5383 5.38473V24.6154C16.5383 25.4656 15.8495 26.1543 15 26.1543Z" fill="white"/>
</g>
<g id="Group_7">
<path id="Vector_5" d="M19.4865 30C18.6376 30 17.9482 29.3113 17.9482 28.4617V1.5383C17.9482 0.688723 18.6376 0 19.4865 0C20.3368 0 21.0248 0.688723 21.0248 1.5383V28.4617C21.0248 29.3113 20.3368 30 19.4865 30Z" fill="white"/>
</g>
<g id="Group_8">
<path id="Vector_6" d="M23.9751 24.231C23.1249 24.231 22.4368 23.5423 22.4368 22.6927V7.30722C22.4368 6.45764 23.1249 5.76892 23.9751 5.76892C24.824 5.76892 25.5134 6.45764 25.5134 7.30722V22.6927C25.5134 23.5423 24.824 24.231 23.9751 24.231Z" fill="white"/>
</g>
<g id="Group_9">
<path id="Vector_7" d="M28.4616 18.4615C27.6121 18.4615 26.9233 17.7728 26.9233 16.9239V13.0775C26.9233 12.2279 27.6121 11.5392 28.4616 11.5392C29.3112 11.5392 29.9999 12.2279 29.9999 13.0775V16.9239C29.9999 17.7728 29.3112 18.4615 28.4616 18.4615Z" fill="white"/>
</g>
</g>
</g>
</g>
<defs>
<clipPath id="clip0_8_14590">
<rect width="30" height="30" fill="white"/>
</clipPath>
</defs>
</svg>
