<svg width="30" height="30" viewBox="0 0 30 30" fill="none" xmlns="http://www.w3.org/2000/svg">
<g clip-path="url(#clip0_8_14577)">
<path d="M29.725 25.5874L26.9125 22.7749C26.3212 22.1837 25.3125 22.6049 25.3125 23.4374V24.9999H4.99997V4.68743H6.56247C7.39872 4.68743 7.81497 3.67493 7.22497 3.08743L4.41247 0.274932C4.04622 -0.0913184 3.45247 -0.0913184 3.08622 0.274932L0.27497 3.08743C-0.31378 3.67493 0.10247 4.68743 0.93747 4.68743H2.49997V24.9999H1.24997C0.558721 24.9999 -2.95801e-05 25.5599 -2.95801e-05 26.2499C-2.95801e-05 26.9399 0.558721 27.4999 1.24997 27.4999H2.49997V28.7499C2.49997 29.4399 3.05872 29.9999 3.74997 29.9999C4.44122 29.9999 4.99997 29.4399 4.99997 28.7499V27.4999H25.3125V29.0624C25.3125 29.8987 26.3262 30.3112 26.9125 29.7249L29.725 26.9124C30.0912 26.5462 30.0912 25.9537 29.725 25.5874Z" fill="white"/>
<path d="M16.25 5L25 8.75L16.25 12.5L7.5 8.75L16.25 5Z" fill="white"/>
<path d="M15 14.6837L7.5 11.47V18.75C7.5 19.0087 7.65875 19.2412 7.9 19.3337L15 22.0637V14.6837Z" fill="white"/>
<path d="M17.5 14.6837V22.0637L24.6 19.3325C24.8413 19.2412 25 19.0087 25 18.75V11.47L17.5 14.6837Z" fill="white"/>
</g>
<defs>
<clipPath id="clip0_8_14577">
<rect width="30" height="30" fill="white"/>
</clipPath>
</defs>
</svg>
