<svg width="30" height="30" viewBox="0 0 30 30" fill="none" xmlns="http://www.w3.org/2000/svg">
<g clip-path="url(#clip0_8_14543)">
<path d="M4.16466 9.71753C3.64776 9.71753 3.20919 9.89778 2.84868 10.2583C2.48817 10.6188 2.30786 11.0514 2.30786 11.5563V19.3087C2.30786 19.8262 2.48812 20.2644 2.84868 20.625C3.20919 20.9855 3.64776 21.1658 4.16466 21.1658C4.68118 21.1658 5.11709 20.9855 5.47202 20.625C5.82624 20.2644 6.00383 19.8262 6.00383 19.3087V11.5563C6.00383 11.0514 5.82358 10.6188 5.46301 10.2583C5.10245 9.89778 4.66957 9.71753 4.16466 9.71753Z" fill="white"/>
<path d="M19.0927 2.75818L20.3727 0.396789C20.4568 0.240455 20.4269 0.120574 20.2828 0.0362778C20.1264 -0.0364103 20.0063 0.000421913 19.9223 0.144171L18.6243 2.52443C17.4822 2.01947 16.2742 1.76653 15.0004 1.76653C13.7263 1.76653 12.5182 2.01952 11.3765 2.52443L10.0785 0.144171C9.99414 0.000421913 9.87399 -0.0360849 9.71798 0.0362778C9.57358 0.120954 9.54369 0.240455 9.62804 0.396789L10.9082 2.75818C9.61014 3.42013 8.57634 4.34202 7.80715 5.52586C7.03796 6.71035 6.6532 8.00474 6.6532 9.4113H23.3295C23.3295 8.00506 22.9447 6.71062 22.1755 5.52586C21.4063 4.34202 20.3784 3.42013 19.0927 2.75818ZM11.6919 6.19285C11.5535 6.33161 11.3881 6.40066 11.1959 6.40066C11.0034 6.40066 10.8414 6.33161 10.7092 6.19285C10.5771 6.05474 10.511 5.89006 10.511 5.69722C10.511 5.50503 10.5771 5.34001 10.7092 5.20158C10.8414 5.06347 11.0037 4.99442 11.1959 4.99442C11.3881 4.99442 11.5535 5.06347 11.6919 5.20158C11.83 5.34034 11.8994 5.50503 11.8994 5.69722C11.899 5.88973 11.8297 6.05474 11.6919 6.19285ZM19.2908 6.19285C19.1584 6.33161 18.9961 6.40066 18.8042 6.40066C18.6116 6.40066 18.4463 6.33161 18.3081 6.19285C18.1698 6.05474 18.1007 5.89006 18.1007 5.69722C18.1007 5.50503 18.1698 5.34001 18.3081 5.20158C18.4463 5.06347 18.6116 4.99442 18.8042 4.99442C18.9964 4.99442 19.1584 5.06347 19.2908 5.20158C19.4231 5.34034 19.489 5.50503 19.489 5.69722C19.489 5.88973 19.423 6.05474 19.2908 6.19285Z" fill="white"/>
<path d="M6.72485 22.067C6.72485 22.6204 6.91704 23.0889 7.30148 23.4733C7.68623 23.8577 8.15469 24.0499 8.70772 24.0499H10.0419L10.0602 28.1429C10.0602 28.6598 10.2405 29.0987 10.601 29.4592C10.9615 29.8198 11.3944 30 11.899 30C12.4156 30 12.8544 29.8198 13.215 29.4592C13.5755 29.0987 13.7558 28.6598 13.7558 28.1429V24.0503H16.2437V28.1429C16.2437 28.6598 16.4239 29.0987 16.7845 29.4592C17.145 29.8198 17.5835 30 18.1004 30C18.617 30 19.0558 29.8198 19.4164 29.4592C19.777 29.0987 19.9572 28.6598 19.9572 28.1429V24.0503H21.3094C21.8502 24.0503 22.3126 23.8581 22.6977 23.4736C23.0821 23.0892 23.2744 22.6207 23.2744 22.0674V10.0597H6.72485V22.067Z" fill="white"/>
<path d="M25.8355 9.71753C25.3306 9.71753 24.898 9.89513 24.5375 10.2493C24.177 10.6042 23.9967 11.0401 23.9967 11.5563V19.3087C23.9967 19.8262 24.1769 20.2644 24.5375 20.625C24.898 20.9855 25.3309 21.1658 25.8355 21.1658C26.3521 21.1658 26.791 20.9855 27.1515 20.625C27.5121 20.2644 27.6923 19.8262 27.6923 19.3087V11.5563C27.6923 11.0401 27.5121 10.6042 27.1515 10.2493C26.791 9.89513 26.3521 9.71753 25.8355 9.71753Z" fill="white"/>
</g>
<defs>
<clipPath id="clip0_8_14543">
<rect width="30" height="30" fill="white"/>
</clipPath>
</defs>
</svg>
