<svg width="176" height="62" viewBox="0 0 176 62" fill="none" xmlns="http://www.w3.org/2000/svg">
<path fill-rule="evenodd" clip-rule="evenodd" d="M42.5508 36.3327C42.3677 38.429 43.3814 39.4765 45.6034 39.4765C47.0163 39.4765 48.2584 39.0365 49.3325 38.1428C50.4083 37.2488 51.0142 36.0686 51.143 34.5906L51.3743 31.954L48.6728 32.0527C44.8276 32.2302 42.7842 33.6642 42.5508 36.3327ZM160.296 22.8267L164.078 13.0495H176L172.488 20.7432L160.296 22.8267ZM142.56 25.8576L138.606 13.0495H150.922L153.186 24.0417L142.56 25.8576ZM142.219 62C140.664 62 139.093 61.8349 137.48 61.4928L138.293 52.227C139.355 52.4704 140.472 52.5915 141.643 52.5915C143.821 52.5915 145.54 51.8314 146.827 50.2866C147.472 49.5257 148.201 48.3334 149 46.7128L143.912 30.2363L154.297 29.4343L154.953 32.6171C155.141 33.7206 155.231 34.9535 155.197 36.3327H155.427C155.73 34.8668 156.079 33.6422 156.479 32.6938L157.846 29.1598L169.041 28.2952L159.43 49.3486C157.297 53.9484 154.9 57.2024 152.235 59.122C149.561 61.0412 146.226 62 142.219 62ZM134.184 30.9878L132.765 47.1756H121.074L122.413 31.8972L134.184 30.9878ZM136.872 0.330509L134.514 27.2327L122.645 29.261L125.181 0.330509H136.872ZM110.044 32.8526L108.789 47.1752H97.0982L98.2736 33.7616L110.044 32.8526ZM118.984 13.0499C118.676 16.547 118.37 20.0466 118.064 23.5437H110.86L110.172 31.3925L98.3036 33.4203L99.1687 23.5432H94.6815L95.6022 13.0495H100.371L100.503 11.5454C100.988 7.60792 102.14 4.74365 103.964 2.94596C105.952 0.982402 108.961 0 112.989 0C115.913 0 118.942 0.52956 122.078 1.61066L118.914 9.23184C117.514 8.83499 116.131 8.63635 114.75 8.63635C113.842 8.63635 113.161 8.91295 112.708 9.4649C112.243 10.0256 111.968 10.9196 111.86 12.1442L111.781 13.0499H118.984ZM92.2368 13.0499L91.3174 23.5437C89.4823 23.5437 87.5673 23.4955 85.7338 23.5607C81.2268 23.7365 78.7862 26.0256 78.4014 30.4101L76.9305 47.176H65.2393L68.2318 13.0503H74.7957H76.9326L78.2845 18.4998H78.841C79.9748 16.678 81.4729 15.2113 83.3323 14.1078C84.0686 13.667 84.7938 13.3141 85.5124 13.0503H92.2368V13.0499ZM15.4862 47.7819C9.97051 47.7819 5.90923 46.282 3.29171 43.2825C0.676658 40.2818 -0.376936 35.9479 0.118994 30.2786C0.616159 24.6198 2.54432 20.2294 5.90306 17.1201C9.26427 13.9971 13.8009 12.4424 19.515 12.4424C23.4018 12.4424 27.0243 13.3141 30.3752 15.0562L26.1539 23.7593C23.175 22.3916 20.7159 21.7178 18.7684 21.7178C16.8185 21.7178 15.2665 22.458 14.1079 23.9347C12.9469 25.4234 12.251 27.5093 12.0131 30.2106C11.534 35.6816 13.298 38.4066 17.3049 38.4066C20.7093 38.4066 24.0808 37.4034 27.4202 35.3959L26.5988 44.7708C23.3919 46.7788 19.6907 47.7819 15.4862 47.7819ZM61.655 47.1756H53.5868L51.7282 42.6526H51.5002C49.7968 44.5942 48.0806 45.9411 46.3413 46.6681C44.6136 47.4083 42.457 47.7815 39.895 47.7815C36.6771 47.7815 34.2554 46.8124 32.6075 44.8695C30.9613 42.9296 30.2884 40.2271 30.5917 36.7752C31.2062 29.7711 36.4128 26.065 46.2121 25.6669L51.9122 25.457L51.9533 24.9942C52.1999 22.1806 50.9306 20.7793 48.1616 20.7793C45.7314 20.7793 42.5274 21.6083 38.5501 23.2841L35.8473 15.519C39.9897 13.4671 45.0626 12.4416 51.0594 12.4416C55.3956 12.4416 58.6601 13.5343 60.8426 15.728C63.0379 17.9126 63.9548 20.9352 63.6165 24.796L61.655 47.1756Z" fill="white"/>
</svg>
