<svg width="24" height="24" viewBox="0 0 24 24" fill="none" xmlns="http://www.w3.org/2000/svg">
<g id="pdf-file (1) 1">
<g id="Group">
<path id="Vector" d="M7.06961 15.4407C7.06961 15.0421 6.79304 14.8044 6.30507 14.8044C6.1058 14.8044 5.97085 14.8241 5.90027 14.8429V16.1217C5.98385 16.1405 6.08659 16.1468 6.22821 16.1468C6.74834 16.1468 7.06961 15.884 7.06961 15.4407Z" fill="white"/>
<path id="Vector_2" d="M10.0904 14.8181C9.87184 14.8181 9.73062 14.837 9.64709 14.8565V17.6887C9.73067 17.7083 9.86562 17.7083 9.98763 17.7083C10.8741 17.7146 11.4523 17.2266 11.4523 16.1926C11.4586 15.2935 10.9317 14.8181 10.0904 14.8181Z" fill="white"/>
<path id="Vector_3" d="M15.7029 0H6.06351C4.65529 0 3.50915 1.14694 3.50915 2.55436V12H3.25966C2.69129 12 2.23035 12.4604 2.23035 13.0293V19.2717C2.23035 19.8405 2.69124 20.3009 3.25966 20.3009H3.50915V21.4456C3.50915 22.8546 4.65529 24 6.06351 24H19.216C20.6233 24 21.7696 22.8545 21.7696 21.4456V6.0455L15.7029 0ZM4.93066 14.1558C5.23231 14.1049 5.65632 14.0664 6.25371 14.0664C6.85742 14.0664 7.2877 14.1817 7.57681 14.4131C7.85298 14.6313 8.03935 14.9913 8.03935 15.415C8.03935 15.8386 7.89813 16.1988 7.64117 16.4427C7.30696 16.7573 6.81272 16.8986 6.23454 16.8986C6.10587 16.8986 5.99053 16.8922 5.90033 16.8797V18.4276H4.93066V14.1558ZM19.216 22.4356H6.06351C5.51824 22.4356 5.07422 21.9916 5.07422 21.4456V20.3009H17.3351C17.9035 20.3009 18.3644 19.8405 18.3644 19.2717V13.0293C18.3644 12.4604 17.9035 12 17.3351 12H5.07422V2.55436C5.07422 2.00989 5.51829 1.56587 6.06351 1.56587L15.1176 1.55641V4.90314C15.1176 5.88068 15.9108 6.67459 16.8891 6.67459L20.1676 6.66518L20.2045 21.4455C20.2045 21.9916 19.7612 22.4356 19.216 22.4356ZM8.66461 18.408V14.1558C9.02426 14.0986 9.49302 14.0664 9.98771 14.0664C10.8098 14.0664 11.343 14.2139 11.7607 14.5285C12.2103 14.8627 12.4926 15.3954 12.4926 16.1603C12.4926 16.9887 12.191 17.5607 11.7732 17.9136C11.3174 18.2925 10.6235 18.4722 9.77586 18.4722C9.26822 18.4722 8.90857 18.4401 8.66461 18.408ZM15.6747 15.8905V16.6867H14.1201V18.4276H13.1375V14.0986H15.7837V14.9011H14.1201V15.8905H15.6747Z" fill="white"/>
</g>
</g>
</svg>
